<svg width="40" height="40" viewBox="0 0 40 40" fill="none" xmlns="http://www.w3.org/2000/svg">
<circle cx="20" cy="20" r="20" fill="#E4E9F9" fill-opacity="0.4"/>
<mask id="mask0_170_5030" style="mask-type:alpha" maskUnits="userSpaceOnUse" x="0" y="0" width="40" height="40">
<circle cx="20" cy="20" r="20" fill="#D9D9D9"/>
</mask>
<g mask="url(#mask0_170_5030)">
<path d="M40 0H0V40H40V0Z" fill="#7360F2"/>
<path d="M31.21 8.33C30.45 7.63 27.385 5.405 20.555 5.375C20.555 5.375 12.5 4.89 8.57501 8.49C6.39001 10.675 5.62001 13.875 5.54001 17.84C5.46001 21.805 5.35501 29.235 12.515 31.25H12.52L12.515 34.325C12.515 34.325 12.47 35.57 13.29 35.825C14.28 36.135 14.865 35.185 15.81 34.165C16.33 33.605 17.045 32.785 17.585 32.155C22.485 32.565 26.25 31.625 26.68 31.485C27.67 31.165 33.265 30.445 34.175 23.015C35.12 15.36 33.725 10.515 31.21 8.33ZM32.04 22.47C31.27 28.675 26.73 29.065 25.895 29.33C25.54 29.445 22.23 30.27 18.07 29.995C18.07 29.995 14.97 33.735 14 34.71C13.85 34.86 13.67 34.925 13.55 34.895C13.385 34.855 13.335 34.655 13.34 34.37C13.345 33.96 13.365 29.26 13.365 29.26C7.31001 27.575 7.66001 21.25 7.73001 17.94C7.80001 14.63 8.42001 11.915 10.27 10.09C13.59 7.085 20.43 7.53 20.43 7.53C26.205 7.555 28.975 9.295 29.615 9.875C31.745 11.705 32.83 16.07 32.04 22.47Z" fill="white"/>
<path d="M23.365 18.055C23.16 18.055 22.99 17.895 22.98 17.69C22.915 16.38 22.295 15.74 21.035 15.67C20.82 15.655 20.665 15.465 20.68 15.255C20.695 15.05 20.87 14.895 21.075 14.9C22.74 14.99 23.66 15.94 23.75 17.655C23.76 17.87 23.595 18.05 23.385 18.06H23.365V18.055Z" fill="white"/>
<path d="M25.35 18.715H25.34C25.125 18.71 24.96 18.535 24.965 18.32C24.995 17 24.62 15.93 23.81 15.055C23.005 14.175 21.905 13.7 20.445 13.595C20.23 13.58 20.07 13.395 20.085 13.18C20.1 12.965 20.285 12.805 20.5 12.82C22.145 12.94 23.45 13.515 24.38 14.53C25.31 15.545 25.77 16.83 25.735 18.335C25.73 18.55 25.56 18.715 25.35 18.715Z" fill="white"/>
<path d="M27.375 19.51C27.165 19.51 26.99 19.34 26.99 19.125C26.97 16.765 26.29 14.96 24.91 13.615C23.545 12.285 21.82 11.605 19.785 11.59C19.57 11.59 19.4 11.415 19.4 11.2C19.4 10.985 19.575 10.815 19.79 10.815H19.795C22.035 10.83 23.94 11.585 25.45 13.06C26.96 14.535 27.74 16.575 27.76 19.12C27.765 19.335 27.595 19.51 27.375 19.51Z" fill="white"/>
<path d="M21.135 22.84C21.135 22.84 21.68 22.885 21.97 22.525L22.54 21.81C22.815 21.455 23.48 21.23 24.13 21.59C24.615 21.87 25.09 22.17 25.545 22.495C25.975 22.81 26.86 23.55 26.86 23.55C27.28 23.905 27.38 24.425 27.09 24.975C27.09 24.98 27.09 24.985 27.09 24.985C26.775 25.53 26.375 26.025 25.905 26.445C25.9 26.45 25.9 26.45 25.895 26.455C25.485 26.795 25.085 26.99 24.69 27.035C24.63 27.045 24.575 27.05 24.515 27.045C24.34 27.045 24.17 27.02 24.005 26.965L23.99 26.945C23.385 26.775 22.37 26.345 20.68 25.415C19.705 24.88 18.77 24.265 17.9 23.58C17.46 23.235 17.045 22.865 16.65 22.47L16.61 22.43L16.57 22.39L16.53 22.35C16.515 22.335 16.5 22.32 16.49 22.31C16.095 21.915 15.725 21.495 15.38 21.06C14.69 20.185 14.075 19.255 13.545 18.28C12.615 16.59 12.185 15.575 12.015 14.97L11.995 14.955C11.94 14.79 11.915 14.615 11.915 14.445C11.91 14.385 11.915 14.325 11.925 14.27C11.975 13.875 12.17 13.475 12.51 13.065C12.515 13.06 12.515 13.06 12.52 13.055C12.94 12.585 13.435 12.185 13.98 11.87C13.985 11.87 13.99 11.865 13.99 11.865C14.54 11.58 15.06 11.675 15.415 12.095C15.42 12.1 16.155 12.98 16.47 13.41C16.795 13.865 17.095 14.34 17.375 14.825C17.735 15.475 17.51 16.14 17.155 16.415L16.44 16.985C16.08 17.275 16.125 17.82 16.125 17.82C16.125 17.82 17.165 21.825 21.135 22.84Z" fill="white"/>
</g>
</svg>
