<svg width="20" height="19" viewBox="0 0 20 19" fill="none" xmlns="http://www.w3.org/2000/svg">
<g id="elements">
<path id="Vector" d="M9.99984 11.2055C8.16042 11.0336 6.27532 11.4322 4.64782 12.4013C3.46884 13.1033 0.377641 14.5368 2.26039 16.3305C3.18009 17.2067 4.20441 17.8333 5.49223 17.8333H10.8332" stroke="#5072F1" stroke-width="1.5" stroke-linecap="round" stroke-linejoin="round"/>
<path id="Ellipse 1381" d="M12.9165 4.91666C12.9165 6.98773 11.2376 8.66666 9.1665 8.66666C7.09544 8.66666 5.4165 6.98773 5.4165 4.91666C5.4165 2.8456 7.09544 1.16666 9.1665 1.16666C11.2376 1.16666 12.9165 2.8456 12.9165 4.91666Z" stroke="#5072F1" stroke-width="1.5"/>
<path id="Vector_2" d="M14.9992 11.1667C13.9438 11.1667 13.2596 11.8397 12.4503 12.085C12.1212 12.1847 11.9567 12.2346 11.8901 12.3049C11.8235 12.3752 11.804 12.4779 11.765 12.6834C11.3477 14.882 12.2598 16.9147 14.435 17.7058C14.6687 17.7908 14.7856 17.8333 15.0004 17.8333C15.2151 17.8333 15.332 17.7908 15.5657 17.7058C17.7408 16.9146 18.652 14.882 18.2346 12.6834C18.1956 12.4779 18.176 12.3751 18.1094 12.3048C18.0428 12.2345 17.8783 12.1847 17.5493 12.085C16.7397 11.8397 16.0546 11.1667 14.9992 11.1667Z" stroke="#5072F1" stroke-width="1.5" stroke-linecap="round" stroke-linejoin="round"/>
</g>
</svg>
