<svg width="20" height="18" viewBox="0 0 20 18" fill="none" xmlns="http://www.w3.org/2000/svg">
<g id="elements">
<path id="Vector" d="M7.08301 11.0833H12.9163M7.08301 6.91667H9.99967" stroke="#5072F1" stroke-width="1.5" stroke-linecap="round" stroke-linejoin="round"/>
<path id="Vector_2" d="M11.8087 16.4088C15.2945 16.1771 18.0712 13.361 18.2996 9.82573C18.3444 9.1339 18.3444 8.41744 18.2996 7.7256C18.0712 4.19031 15.2945 1.37428 11.8087 1.14256C10.6194 1.06351 9.37781 1.06367 8.191 1.14256C4.70516 1.37428 1.92851 4.19031 1.70004 7.7256C1.65533 8.41744 1.65533 9.1339 1.70004 9.82573C1.78325 11.1133 2.3527 12.3055 3.02309 13.3122C3.41234 14.0169 3.15546 14.8965 2.75001 15.6648C2.45768 16.2188 2.31151 16.4958 2.42887 16.6959C2.54623 16.896 2.80839 16.9024 3.33269 16.9152C4.36956 16.9404 5.06874 16.6465 5.62374 16.2372C5.93851 16.0051 6.09589 15.889 6.20437 15.8757C6.31284 15.8623 6.52631 15.9503 6.95318 16.1261C7.33684 16.2841 7.78231 16.3816 8.191 16.4088C9.37781 16.4877 10.6194 16.4878 11.8087 16.4088Z" stroke="#5072F1" stroke-width="1.5" stroke-linejoin="round"/>
</g>
</svg>
