<svg width="20" height="20" viewBox="0 0 20 20" fill="none" xmlns="http://www.w3.org/2000/svg">
<path d="M10 0.000396729C4.49 0.000396729 0 4.4904 0 10.0004C0 15.5104 4.49 20.0004 10 20.0004C15.51 20.0004 20 15.5104 20 10.0004C20 4.4904 15.51 0.000396729 10 0.000396729ZM10 15.0004C9.45 15.0004 9 14.5504 9 14.0004C9 13.4504 9.45 13.0004 10 13.0004C10.55 13.0004 11 13.4504 11 14.0004C11 14.5504 10.55 15.0004 10 15.0004ZM11 10.0004C11 10.5504 10.55 11.0004 10 11.0004C9.45 11.0004 9 10.5504 9 10.0004V6.0004C9 5.4504 9.45 5.0004 10 5.0004C10.55 5.0004 11 5.4504 11 6.0004V10.0004Z" fill="url(#paint0_linear_92_3687)"/>
<defs>
<linearGradient id="paint0_linear_92_3687" x1="20" y1="-4.3746" x2="-1.28851" y2="23.6033" gradientUnits="userSpaceOnUse">
<stop stop-color="#FF3232"/>
<stop offset="1" stop-color="#D73C3C"/>
</linearGradient>
</defs>
</svg>
