<svg width="18" height="19" viewBox="0 0 18 19" fill="none" xmlns="http://www.w3.org/2000/svg">
<g id="elements">
<path id="Vector" d="M10.2502 10.3333L13.1668 7M10.6668 12C10.6668 12.9205 9.92064 13.6667 9.00016 13.6667C8.07969 13.6667 7.3335 12.9205 7.3335 12C7.3335 11.0795 8.07969 10.3333 9.00016 10.3333C9.92064 10.3333 10.6668 11.0795 10.6668 12Z" stroke="#5072F1" stroke-width="1.5" stroke-linecap="round"/>
<path id="Ellipse 1287" d="M4 9.5C4 6.73858 6.23858 4.5 9 4.5C9.91072 4.5 10.7646 4.74349 11.5 5.16891" stroke="#5072F1" stroke-width="1.5" stroke-linecap="round"/>
<path id="Rectangle 2056" d="M1.0835 9.50005C1.0835 5.7681 1.0835 3.90212 2.24287 2.74275C3.40223 1.58338 5.26821 1.58338 9.00016 1.58338C12.7321 1.58338 14.5981 1.58338 15.7575 2.74275C16.9168 3.90212 16.9168 5.7681 16.9168 9.50005C16.9168 13.232 16.9168 15.098 15.7575 16.2573C14.5981 17.4167 12.7321 17.4167 9.00016 17.4167C5.26821 17.4167 3.40223 17.4167 2.24287 16.2573C1.0835 15.098 1.0835 13.232 1.0835 9.50005Z" stroke="#5072F1" stroke-width="1.5"/>
</g>
</svg>
