<svg width="24" height="24" viewBox="0 0 24 24" fill="none" xmlns="http://www.w3.org/2000/svg">
<path d="M12 2.0004C6.49 2.0004 2 6.4904 2 12.0004C2 17.5104 6.49 22.0004 12 22.0004C17.51 22.0004 22 17.5104 22 12.0004C22 6.4904 17.51 2.0004 12 2.0004ZM12 17.0004C11.45 17.0004 11 16.5504 11 16.0004C11 15.4504 11.45 15.0004 12 15.0004C12.55 15.0004 13 15.4504 13 16.0004C13 16.5504 12.55 17.0004 12 17.0004ZM13 12.0004C13 12.5504 12.55 13.0004 12 13.0004C11.45 13.0004 11 12.5504 11 12.0004V8.0004C11 7.4504 11.45 7.0004 12 7.0004C12.55 7.0004 13 7.4504 13 8.0004V12.0004Z" fill="url(#paint0_linear_92_3686)"/>
<defs>
<linearGradient id="paint0_linear_92_3686" x1="22" y1="-2.3746" x2="0.711493" y2="25.6033" gradientUnits="userSpaceOnUse">
<stop stop-color="#FF3232"/>
<stop offset="1" stop-color="#D73C3C"/>
</linearGradient>
</defs>
</svg>
