<svg width="76" height="15" viewBox="0 0 76 15" fill="none" xmlns="http://www.w3.org/2000/svg">
<path fill-rule="evenodd" clip-rule="evenodd" d="M7.71875 1.23096C7.47602 1.23096 7.27451 1.3944 7.21169 1.61799L5.92523 5.592H1.70051C1.40879 5.592 1.17725 5.84568 1.17725 6.1398C1.17725 6.31977 1.26716 6.48051 1.40345 6.57606C1.48787 6.63327 4.81586 9.0645 4.81586 9.0645C4.81586 9.0645 3.53771 12.9895 3.51293 13.0521C3.49403 13.1093 3.48044 13.1722 3.48044 13.2374C3.48044 13.5318 3.71735 13.7689 4.0091 13.7689C4.12088 13.7689 4.22444 13.7335 4.31171 13.6737L7.71875 11.1931C7.71875 11.1931 11.0494 13.6191 11.1258 13.6737C11.2128 13.7335 11.3166 13.7689 11.4282 13.7689C11.7199 13.7689 11.9571 13.5291 11.9571 13.2374C11.9571 13.1722 11.9436 13.1093 11.9243 13.0521C11.8998 12.9895 10.6217 9.0645 10.6217 9.0645C10.6217 9.0645 13.9494 6.63327 14.034 6.57606C14.1703 6.48051 14.2602 6.31977 14.2602 6.13716C14.2602 5.84565 14.034 5.592 13.7422 5.592H9.51758L8.22551 1.61799C8.16305 1.3944 7.96118 1.23096 7.71875 1.23096Z" fill="#FFD132"/>
<path fill-rule="evenodd" clip-rule="evenodd" d="M22.7192 1.23096C22.4765 1.23096 22.275 1.3944 22.2122 1.61799L20.9257 5.592H16.701C16.4093 5.592 16.1777 5.84568 16.1777 6.1398C16.1777 6.31977 16.2676 6.48051 16.4039 6.57606C16.4884 6.63327 19.8163 9.0645 19.8163 9.0645C19.8163 9.0645 18.5382 12.9895 18.5134 13.0521C18.4945 13.1093 18.4809 13.1722 18.4809 13.2374C18.4809 13.5318 18.7178 13.7689 19.0096 13.7689C19.1214 13.7689 19.2249 13.7335 19.3122 13.6737L22.7192 11.1931C22.7192 11.1931 26.0499 13.6191 26.1263 13.6737C26.2133 13.7335 26.3171 13.7689 26.4286 13.7689C26.7204 13.7689 26.9575 13.5291 26.9575 13.2374C26.9575 13.1722 26.944 13.1093 26.9248 13.0521C26.9003 12.9895 25.6222 9.0645 25.6222 9.0645C25.6222 9.0645 28.9499 6.63327 29.0345 6.57606C29.1708 6.48051 29.2607 6.31977 29.2607 6.13716C29.2607 5.84565 29.0345 5.592 28.7427 5.592H24.5181L23.226 1.61799C23.1635 1.3944 22.9617 1.23096 22.7192 1.23096Z" fill="#FFD132"/>
<path fill-rule="evenodd" clip-rule="evenodd" d="M37.7183 1.23096C37.4755 1.23096 37.274 1.3944 37.2112 1.61799L35.9247 5.592H31.7C31.4083 5.592 31.1768 5.84568 31.1768 6.1398C31.1768 6.31977 31.2667 6.48051 31.403 6.57606C31.4874 6.63327 34.8154 9.0645 34.8154 9.0645C34.8154 9.0645 33.5372 12.9895 33.5124 13.0521C33.4935 13.1093 33.4799 13.1722 33.4799 13.2374C33.4799 13.5318 33.7169 13.7689 34.0086 13.7689C34.1204 13.7689 34.2239 13.7335 34.3112 13.6737L37.7183 11.1931C37.7183 11.1931 41.0489 13.6191 41.1253 13.6737C41.2123 13.7335 41.3162 13.7689 41.4277 13.7689C41.7194 13.7689 41.9566 13.5291 41.9566 13.2374C41.9566 13.1722 41.9431 13.1093 41.9238 13.0521C41.8994 12.9895 40.6212 9.0645 40.6212 9.0645C40.6212 9.0645 43.9489 6.63327 44.0335 6.57606C44.1698 6.48051 44.2598 6.31977 44.2598 6.13716C44.2598 5.84565 44.0335 5.592 43.7417 5.592H39.5171L38.225 1.61799C38.1626 1.3944 37.9607 1.23096 37.7183 1.23096Z" fill="#FFD132"/>
<path fill-rule="evenodd" clip-rule="evenodd" d="M52.7187 1.23096C52.476 1.23096 52.2745 1.3944 52.2117 1.61799L50.9252 5.592H46.7005C46.4088 5.592 46.1772 5.84568 46.1772 6.1398C46.1772 6.31977 46.2672 6.48051 46.4034 6.57606C46.4879 6.63327 49.8159 9.0645 49.8159 9.0645C49.8159 9.0645 48.5377 12.9895 48.5129 13.0521C48.494 13.1093 48.4804 13.1722 48.4804 13.2374C48.4804 13.5318 48.7173 13.7689 49.0091 13.7689C49.1209 13.7689 49.2244 13.7335 49.3117 13.6737L52.7187 11.1931C52.7187 11.1931 56.0494 13.6191 56.1258 13.6737C56.2128 13.7335 56.3166 13.7689 56.4282 13.7689C56.7199 13.7689 56.9571 13.5291 56.9571 13.2374C56.9571 13.1722 56.9436 13.1093 56.9243 13.0521C56.8998 12.9895 55.6217 9.0645 55.6217 9.0645C55.6217 9.0645 58.9494 6.63327 59.034 6.57606C59.1703 6.48051 59.2602 6.31977 59.2602 6.13716C59.2602 5.84565 59.034 5.592 58.7422 5.592H54.5176L53.2255 1.61799C53.163 1.3944 52.9612 1.23096 52.7187 1.23096Z" fill="#FFD132"/>
<path fill-rule="evenodd" clip-rule="evenodd" d="M67.7183 1.23096C67.4755 1.23096 67.274 1.3944 67.2112 1.61799L65.9247 5.592H61.7C61.4083 5.592 61.1768 5.84568 61.1768 6.1398C61.1768 6.31977 61.2667 6.48051 61.403 6.57606C61.4874 6.63327 64.8154 9.0645 64.8154 9.0645C64.8154 9.0645 63.5372 12.9895 63.5124 13.0521C63.4935 13.1093 63.4799 13.1722 63.4799 13.2374C63.4799 13.5318 63.7169 13.7689 64.0086 13.7689C64.1204 13.7689 64.2239 13.7335 64.3112 13.6737L67.7183 11.1931C67.7183 11.1931 71.0489 13.6191 71.1253 13.6737C71.2123 13.7335 71.3162 13.7689 71.4277 13.7689C71.7194 13.7689 71.9566 13.5291 71.9566 13.2374C71.9566 13.1722 71.9431 13.1093 71.9238 13.0521C71.8994 12.9895 70.6212 9.0645 70.6212 9.0645C70.6212 9.0645 73.9489 6.63327 74.0335 6.57606C74.1698 6.48051 74.2598 6.31977 74.2598 6.13716C74.2598 5.84565 74.0335 5.592 73.7417 5.592H69.5171L68.225 1.61799C68.1626 1.3944 67.9607 1.23096 67.7183 1.23096Z" fill="#FFD132"/>
</svg>
