<svg width="40" height="41" viewBox="0 0 40 41" fill="none" xmlns="http://www.w3.org/2000/svg">
<g id="google play" clip-path="url(#clip0_34_2310)">
<rect width="40" height="40" transform="translate(0 0.0395508)" fill="white"/>
<g id="g58">
<g id="g56">
<path id="path40" d="M2.72345 0.666214C2.21572 1.27537 1.95896 2.05499 2.00535 2.84664V37.2373C1.96159 38.0286 2.21804 38.8073 2.72345 39.4178L2.84096 39.5353L22.0992 20.2639V19.807L2.84096 0.548706L2.72345 0.666214Z" fill="url(#paint0_linear_34_2310)"/>
<path id="path42" d="M28.5229 26.6877L22.0991 20.2639V19.807L28.5229 13.3962L28.6665 13.4746L36.2784 17.7963C38.4589 19.0236 38.4589 21.0473 36.2784 22.2877L28.6665 26.6094L28.5229 26.6877Z" fill="url(#paint1_linear_34_2310)"/>
<path id="path44" d="M28.6668 26.6093L22.1386 20.0811L2.72363 39.4177C3.17115 39.7856 3.7283 39.9942 4.30741 40.0108C4.88651 40.0273 5.45467 39.8508 5.92246 39.5091L28.6276 26.6093" fill="url(#paint2_linear_34_2310)"/>
<path id="path46" d="M28.6668 13.4745L5.92246 0.561719C5.45969 0.205932 4.88776 0.0218435 4.30434 0.040894C3.72092 0.0599444 3.16221 0.280952 2.72363 0.66617L22.0994 20.0419L28.6668 13.4745Z" fill="url(#paint3_linear_34_2310)"/>
<path id="path48" opacity="0.1" d="M28.5228 26.4657L5.92208 39.2871C5.47126 39.6231 4.92405 39.8045 4.36184 39.8045C3.79962 39.8045 3.25241 39.6231 2.80159 39.2871L2.68408 39.4046L2.80159 39.5222C3.25241 39.8581 3.79962 40.0395 4.36184 40.0395C4.92405 40.0395 5.47126 39.8581 5.92208 39.5222L28.6273 26.6224L28.5228 26.4657Z" fill="#030303"/>
<path id="path50" opacity="0.07" d="M2.72355 39.2089C2.21729 38.5938 1.96095 37.8108 2.00545 37.0154V37.2373C1.96169 38.0286 2.21814 38.8073 2.72355 39.4178L2.84106 39.3003L2.72355 39.2089Z" fill="#030303"/>
<path id="path52" opacity="0.07" d="M36.2785 22.0527L28.5229 26.4657L28.6666 26.6094L36.2785 22.2355C36.725 22.0391 37.1113 21.7278 37.3981 21.3332C37.6848 20.9386 37.8617 20.475 37.9105 19.9897C37.8215 20.4383 37.627 20.8593 37.3433 21.218C37.0595 21.5767 36.6945 21.8628 36.2785 22.0527Z" fill="#030303"/>
<path id="path54" opacity="0.3" d="M5.92231 0.796756L36.2786 18.0182C36.6906 18.2034 37.0531 18.4832 37.3367 18.8349C37.6202 19.1865 37.8169 19.6001 37.9106 20.042C37.8644 19.5559 37.6886 19.0911 37.4015 18.6961C37.1144 18.3011 36.7266 17.9903 36.2786 17.7963L5.92231 0.56174C3.78105 -0.665567 2.00537 0.352837 2.00537 2.84662V3.06858C2.00537 0.587853 3.78105 -0.443607 5.92231 0.796756Z" fill="white"/>
</g>
</g>
</g>
<defs>
<linearGradient id="paint0_linear_34_2310" x1="20.4019" y1="2.48106" x2="-5.69796" y2="28.5809" gradientUnits="userSpaceOnUse">
<stop stop-color="#008EFF"/>
<stop offset="0.01" stop-color="#008FFF"/>
<stop offset="0.26" stop-color="#00ACFF"/>
<stop offset="0.51" stop-color="#00C0FF"/>
<stop offset="0.76" stop-color="#00CDFF"/>
<stop offset="1" stop-color="#00D1FF"/>
</linearGradient>
<linearGradient id="paint1_linear_34_2310" x1="36.5396" y1="20.042" x2="-1.08913" y2="20.042" gradientUnits="userSpaceOnUse">
<stop stop-color="#FFD800"/>
<stop offset="1" stop-color="#FF8A00"/>
</linearGradient>
<linearGradient id="paint2_linear_34_2310" x1="25.1024" y1="23.6063" x2="-10.2806" y2="58.9893" gradientUnits="userSpaceOnUse">
<stop stop-color="#FF3A44"/>
<stop offset="1" stop-color="#B11162"/>
</linearGradient>
<linearGradient id="paint3_linear_34_2310" x1="-2.15948" y1="-10.7843" x2="13.6519" y2="5.01397" gradientUnits="userSpaceOnUse">
<stop stop-color="#328E71"/>
<stop offset="0.07" stop-color="#2D9571"/>
<stop offset="0.48" stop-color="#15BD74"/>
<stop offset="0.8" stop-color="#06D575"/>
<stop offset="1" stop-color="#00DE76"/>
</linearGradient>
<clipPath id="clip0_34_2310">
<rect width="40" height="40" fill="white" transform="translate(0 0.0395508)"/>
</clipPath>
</defs>
</svg>
