<svg width="20" height="20" viewBox="0 0 20 20" fill="none" xmlns="http://www.w3.org/2000/svg">
<g id="elements">
<path id="Rectangle 1703" d="M7.5 12.5C7.5 10.143 7.5 8.96447 8.23223 8.23223C8.96447 7.5 10.143 7.5 12.5 7.5L13.3333 7.5C15.6904 7.5 16.8689 7.5 17.6011 8.23223C18.3333 8.96447 18.3333 10.143 18.3333 12.5V13.3333C18.3333 15.6904 18.3333 16.8689 17.6011 17.6011C16.8689 18.3333 15.6904 18.3333 13.3333 18.3333H12.5C10.143 18.3333 8.96447 18.3333 8.23223 17.6011C7.5 16.8689 7.5 15.6904 7.5 13.3333L7.5 12.5Z" stroke="#141B34" stroke-width="1.5" stroke-linecap="round" stroke-linejoin="round"/>
<path id="Rectangle 1704" d="M14.1664 7.5C14.1645 5.03575 14.1271 3.75934 13.4099 2.88535C13.2714 2.71657 13.1166 2.56181 12.9478 2.4233C12.0259 1.66666 10.6561 1.66666 7.9165 1.66666C5.17694 1.66666 3.80715 1.66666 2.88519 2.4233C2.71641 2.56181 2.56165 2.71657 2.42314 2.88535C1.6665 3.80731 1.6665 5.1771 1.6665 7.91666C1.6665 10.6562 1.6665 12.026 2.42314 12.948C2.56165 13.1168 2.71641 13.2715 2.88519 13.41C3.75918 14.1273 5.03559 14.1646 7.49984 14.1666" stroke="#141B34" stroke-width="1.5" stroke-linecap="round" stroke-linejoin="round"/>
</g>
</svg>
