<svg width="40" height="41" viewBox="0 0 40 41" fill="none" xmlns="http://www.w3.org/2000/svg">
<g id="App Icon" opacity="0.8">
<g id="AppStore Icon">
<path id="Background" fill-rule="evenodd" clip-rule="evenodd" d="M26.0543 0.0395508C30.07 0.0395508 32.0773 0.0395508 34.239 0.722884C36.599 1.58188 38.4577 3.44055 39.3167 5.80055C40 7.96188 40 9.96988 40 13.9852V26.0939C40 30.1096 40 32.1169 39.3167 34.2786C38.4577 36.6386 36.599 38.4972 34.239 39.3559C32.0773 40.0396 30.07 40.0396 26.0543 40.0396H13.9457C9.93 40.0396 7.92233 40.0396 5.761 39.3559C3.401 38.4972 1.54233 36.6386 0.683333 34.2786C0 32.1169 0 30.1096 0 26.0939V13.9852C0 9.96988 0 7.96188 0.683333 5.80055C1.54233 3.44055 3.401 1.58188 5.761 0.722884C7.92233 0.0395508 9.93 0.0395508 13.9457 0.0395508H26.0543Z" fill="url(#paint0_linear_34_2285)"/>
<mask id="mask0_34_2285" style="mask-type:luminance" maskUnits="userSpaceOnUse" x="0" y="0" width="40" height="41">
<path id="Background_2" fill-rule="evenodd" clip-rule="evenodd" d="M26.0543 0.0395508C30.07 0.0395508 32.0773 0.0395508 34.239 0.722884C36.599 1.58188 38.4577 3.44055 39.3167 5.80055C40 7.96188 40 9.96988 40 13.9852V26.0939C40 30.1096 40 32.1169 39.3167 34.2786C38.4577 36.6386 36.599 38.4972 34.239 39.3559C32.0773 40.0396 30.07 40.0396 26.0543 40.0396H13.9457C9.93 40.0396 7.92233 40.0396 5.761 39.3559C3.401 38.4972 1.54233 36.6386 0.683333 34.2786C0 32.1169 0 30.1096 0 26.0939V13.9852C0 9.96988 0 7.96188 0.683333 5.80055C1.54233 3.44055 3.401 1.58188 5.761 0.722884C7.92233 0.0395508 9.93 0.0395508 13.9457 0.0395508H26.0543Z" fill="white"/>
</mask>
<g mask="url(#mask0_34_2285)">
<path id="Icon" fill-rule="evenodd" clip-rule="evenodd" d="M22.1839 23.4206C22.2997 23.4206 22.4155 23.4484 22.5141 23.5093C23.4778 24.1017 24.1251 25.1907 24.1251 26.4389C24.1251 26.6983 24.0941 26.9492 24.0406 27.1917C24.0276 27.2509 23.9734 27.2924 23.9132 27.2924H17.6835H7.2694C6.13742 27.2924 5.23212 26.3206 5.34265 25.1661C5.43874 24.1598 6.34192 23.4206 7.35282 23.4206H11.7628L17.7567 13.0899L16.1267 10.2808C15.5586 9.3019 15.9447 8.0316 16.9989 7.54727C17.9176 7.12525 19.0101 7.53531 19.5173 8.40998L19.995 9.23256L20.5141 8.33747C21.0819 7.35967 22.3747 7.06295 23.3184 7.73699C24.142 8.32551 24.3282 9.4793 23.8203 10.3547L16.239 23.4206H19.3396H22.1839ZM32.7415 23.4212H28.2266L22.7945 14.1672C22.7079 14.018 22.4946 14.0212 22.4073 14.1697C21.6628 15.4372 21.3274 16.9571 21.3274 18.5339C21.3274 18.7546 21.3373 18.9725 21.3545 19.189C21.3591 19.2442 21.376 19.2977 21.4041 19.3463L24.6839 25.0305L28.876 32.2552C29.235 32.874 29.8844 33.22 30.5522 33.22C30.9502 33.22 31.355 33.0972 31.7081 32.8353C32.5085 32.2422 32.6894 31.1131 32.1892 30.2511L30.473 27.293H32.8249C33.9569 27.293 34.8618 26.3212 34.7517 25.1667C34.6556 24.1604 33.7527 23.4212 32.7415 23.4212ZM9.00625 28.1711L7.7993 30.2506C7.29949 31.1126 7.48111 32.2418 8.28187 32.8348C8.63491 33.0964 9.03933 33.2189 9.43707 33.2189C10.1048 33.2189 10.7542 32.8729 11.1132 32.2541L12.9301 29.1228C12.9868 29.0253 12.9682 28.8986 12.8826 28.8251C12.16 28.2056 11.267 27.8378 10.2987 27.8378C9.92738 27.8378 9.56801 27.8941 9.22412 27.9962C9.13155 28.0236 9.05447 28.088 9.00625 28.1711Z" fill="white"/>
</g>
</g>
</g>
<defs>
<linearGradient id="paint0_linear_34_2285" x1="0" y1="0.0395508" x2="0" y2="40.0396" gradientUnits="userSpaceOnUse">
<stop stop-color="#19E6FF"/>
<stop offset="1" stop-color="#1E51EE"/>
</linearGradient>
</defs>
</svg>
