<svg width="9" height="7" viewBox="0 0 9 7" fill="none" xmlns="http://www.w3.org/2000/svg">
<mask id="path-1-inside-1_2_252" fill="white">
<path fill-rule="evenodd" clip-rule="evenodd" d="M8.78495 1.50572C9.07127 1.22985 9.07127 0.782578 8.78495 0.506708C8.49863 0.230837 8.03441 0.230837 7.74809 0.506708L3.38574 4.71558L1.25159 2.64242C0.965273 2.36655 0.501058 2.36655 0.214739 2.64242C-0.0715797 2.91829 -0.0715797 3.36557 0.214739 3.64144L2.86263 6.21366C2.99185 6.33816 3.15731 6.40648 3.3263 6.4186C3.53345 6.43494 3.74643 6.36677 3.90491 6.21407L8.78495 1.50572Z"/>
</mask>
<path d="M8.78495 0.506708L7.39725 1.94696L7.39726 1.94696L8.78495 0.506708ZM8.78495 1.50572L7.39726 0.065473L7.39628 0.0664177L8.78495 1.50572ZM7.74809 0.506708L6.3604 -0.933542L6.35943 -0.932598L7.74809 0.506708ZM3.38574 4.71558L1.99218 6.15015L3.381 7.49928L4.77441 6.15489L3.38574 4.71558ZM1.25159 2.64242L2.64517 1.20785L2.63928 1.20217L1.25159 2.64242ZM0.214739 2.64242L1.60243 4.08267L0.214739 2.64242ZM0.214739 3.64144L1.60832 2.20686L1.60243 2.20119L0.214739 3.64144ZM2.86263 6.21366L1.46906 7.64824L1.47494 7.65391L2.86263 6.21366ZM3.3263 6.4186L3.48359 4.4248L3.47649 4.42424L3.46939 4.42373L3.3263 6.4186ZM3.90491 6.21407L5.2926 7.65432L5.29358 7.65337L3.90491 6.21407ZM7.39726 1.94696C6.86716 1.43621 6.86716 0.576223 7.39726 0.0654734L10.1726 2.94597C11.2754 1.88348 11.2754 0.128949 10.1726 -0.933542L7.39726 1.94696ZM9.13578 1.94696C8.6475 2.41742 7.88554 2.41742 7.39725 1.94696L10.1726 -0.93354C9.11171 -1.95575 7.42132 -1.95575 6.3604 -0.933541L9.13578 1.94696ZM4.77441 6.15489L9.13676 1.94601L6.35943 -0.932598L1.99707 3.27628L4.77441 6.15489ZM-0.141974 4.07699L1.99218 6.15015L4.77931 3.28102L2.64516 1.20786L-0.141974 4.07699ZM1.60243 4.08267C1.11415 4.55314 0.352185 4.55314 -0.136099 4.08267L2.63928 1.20217C1.57836 0.179968 -0.11203 0.179968 -1.17295 1.20217L1.60243 4.08267ZM1.60243 2.20119C2.13252 2.71194 2.13252 3.57192 1.60243 4.08267L-1.17295 1.20217C-2.27568 2.26467 -2.27568 4.0192 -1.17295 5.08169L1.60243 2.20119ZM4.2562 4.7791L1.60831 2.20687L-1.17883 5.076L1.46907 7.64822L4.2562 4.7791ZM3.46939 4.42373C3.74031 4.44316 4.02333 4.5547 4.25032 4.77341L1.47494 7.65391C1.96038 8.12163 2.57431 8.3698 3.1832 8.41348L3.46939 4.42373ZM2.51722 4.77382C2.79632 4.50491 3.15653 4.39899 3.48359 4.4248L3.16901 8.41241C3.91036 8.47089 4.69655 8.22862 5.2926 7.65432L2.51722 4.77382ZM7.39628 0.0664177L2.51624 4.77476L5.29358 7.65337L10.1736 2.94503L7.39628 0.0664177Z" fill="white" mask="url(#path-1-inside-1_2_252)"/>
</svg>
