<svg width="14" height="19" viewBox="0 0 14 19" fill="none" xmlns="http://www.w3.org/2000/svg">
<g id="elements">
<path id="Path" fill-rule="evenodd" clip-rule="evenodd" d="M2.15135 8.11111C1.33655 8.11111 1.1665 8.27099 1.1665 9.03703V10.4259C1.1665 11.192 1.33655 11.3518 2.15135 11.3518H4.12105V16.9074C4.12105 17.6735 4.2911 17.8333 5.1059 17.8333H7.0756C7.89039 17.8333 8.06044 17.6735 8.06044 16.9074V11.3518H10.2721C10.8901 11.3518 11.0493 11.2389 11.2191 10.6803L11.6411 9.29141C11.932 8.33446 11.7528 8.11111 10.6942 8.11111H8.06044V5.79629C8.06044 5.28492 8.50137 4.87037 9.04529 4.87037H11.8483C12.6631 4.87037 12.8332 4.71049 12.8332 3.94444V2.09259C12.8332 1.32654 12.6631 1.16666 11.8483 1.16666H9.04529C6.32571 1.16666 4.12105 3.23942 4.12105 5.79629V8.11111H2.15135Z" stroke="#5072F1" stroke-width="1.5" stroke-linejoin="round"/>
</g>
</svg>
