<svg width="10" height="7" viewBox="0 0 10 7" fill="none" xmlns="http://www.w3.org/2000/svg">
<path fill-rule="evenodd" clip-rule="evenodd" d="M9.76139 1.37906C10.0795 1.06358 10.0795 0.552087 9.76139 0.236609C9.45763 -0.0646101 8.97366 -0.078225 8.65361 0.195764V0.195764C8.63875 0.208519 8.62341 0.222612 8.60929 0.236609L3.76207 5.04976L1.39071 2.67896C1.37792 2.66627 1.36481 2.6541 1.35141 2.64244L1.34639 2.63811C1.02634 2.36412 0.542371 2.37774 0.238607 2.67896C-0.0795358 2.99443 -0.0795358 3.50592 0.238607 3.8214L3.18081 6.76292C3.3244 6.90531 3.50825 6.98343 3.69601 6.99729C3.92619 7.01598 4.16285 6.93801 4.33894 6.76339L9.76139 1.37906Z" fill="#5072F2"/>
</svg>
