<svg width="20" height="17" viewBox="0 0 20 17" fill="none" xmlns="http://www.w3.org/2000/svg">
<g id="elements">
<path id="Vector" d="M9.99984 15.5833C11.5079 15.5833 12.9541 15.4344 14.2944 15.1611C15.9685 14.8199 16.8055 14.6493 17.5693 13.6672C18.3332 12.6851 18.3332 11.5577 18.3332 9.30295V7.69704C18.3332 5.44227 18.3332 4.31489 17.5693 3.33281C16.8055 2.35073 15.9685 2.1801 14.2944 1.83885C12.9541 1.56564 11.5079 1.41666 9.99984 1.41666C8.49176 1.41666 7.04558 1.56564 5.7053 1.83885C4.03122 2.1801 3.19418 2.35073 2.43034 3.33281C1.6665 4.31489 1.6665 5.44227 1.6665 7.69704V9.30295C1.6665 11.5577 1.6665 12.6851 2.43034 13.6672C3.19418 14.6493 4.03122 14.8199 5.7053 15.1611C7.04558 15.4344 8.49176 15.5833 9.99984 15.5833Z" stroke="#5072F1" stroke-width="1.5"/>
<path id="Vector 3642" d="M13.3018 8.76073C13.1781 9.2656 12.5201 9.6282 11.204 10.3534C9.77271 11.1421 9.05703 11.5365 8.47733 11.3846C8.281 11.3331 8.10017 11.2426 7.94832 11.1199C7.5 10.7574 7.5 10.0049 7.5 8.5C7.5 6.99507 7.5 6.2426 7.94832 5.88015C8.10017 5.75739 8.281 5.6669 8.47733 5.61544C9.05703 5.46351 9.7727 5.85788 11.204 6.64661C12.5201 7.3718 13.1781 7.7344 13.3018 8.23927C13.3439 8.41105 13.3439 8.58895 13.3018 8.76073Z" stroke="#5072F1" stroke-width="1.5" stroke-linejoin="round"/>
</g>
</svg>
