<svg width="125" height="19" viewBox="0 0 125 19" fill="none" xmlns="http://www.w3.org/2000/svg">
<path d="M0 1C0 0.447715 0.447715 0 1 0H121.719C122.657 0 123.079 1.17393 122.356 1.77096L113.933 8.72904C113.449 9.129 113.449 9.87101 113.933 10.271L122.356 17.229C123.079 17.8261 122.657 19 121.719 19H1C0.447717 19 0 18.5523 0 18V1Z" fill="url(#paint0_linear_119_8419)"/>
<path d="M7.56445 5.46875H9.05273L11.2441 11.7324L13.4355 5.46875H14.9238L11.8418 14H10.6465L7.56445 5.46875ZM6.76172 5.46875H8.24414L8.51367 11.5742V14H6.76172V5.46875ZM14.2441 5.46875H15.7324V14H13.9746V11.5742L14.2441 5.46875ZM24.6912 9.53516V9.93945C24.6912 10.5879 24.6034 11.1699 24.4276 11.6855C24.2518 12.2012 24.0037 12.6406 23.6834 13.0039C23.3631 13.3633 22.9803 13.6387 22.535 13.8301C22.0936 14.0215 21.6034 14.1172 21.0643 14.1172C20.5291 14.1172 20.0389 14.0215 19.5936 13.8301C19.1522 13.6387 18.7694 13.3633 18.4452 13.0039C18.1209 12.6406 17.869 12.2012 17.6893 11.6855C17.5135 11.1699 17.4256 10.5879 17.4256 9.93945V9.53516C17.4256 8.88281 17.5135 8.30078 17.6893 7.78906C17.8651 7.27344 18.1131 6.83398 18.4334 6.4707C18.7577 6.10742 19.1405 5.83008 19.5819 5.63867C20.0272 5.44727 20.5174 5.35156 21.0526 5.35156C21.5916 5.35156 22.0819 5.44727 22.5233 5.63867C22.9686 5.83008 23.3514 6.10742 23.6717 6.4707C23.9959 6.83398 24.2459 7.27344 24.4217 7.78906C24.6014 8.30078 24.6912 8.88281 24.6912 9.53516ZM22.9159 9.93945V9.52344C22.9159 9.07031 22.8748 8.67188 22.7928 8.32812C22.7108 7.98438 22.5897 7.69531 22.4295 7.46094C22.2694 7.22656 22.0741 7.05078 21.8436 6.93359C21.6131 6.8125 21.3495 6.75195 21.0526 6.75195C20.7557 6.75195 20.492 6.8125 20.2616 6.93359C20.035 7.05078 19.8416 7.22656 19.6815 7.46094C19.5252 7.69531 19.4061 7.98438 19.3241 8.32812C19.242 8.67188 19.201 9.07031 19.201 9.52344V9.93945C19.201 10.3887 19.242 10.7871 19.3241 11.1348C19.4061 11.4785 19.5272 11.7695 19.6873 12.0078C19.8475 12.2422 20.0428 12.4199 20.2733 12.541C20.5037 12.6621 20.7674 12.7227 21.0643 12.7227C21.3612 12.7227 21.6248 12.6621 21.8553 12.541C22.0858 12.4199 22.2791 12.2422 22.4354 12.0078C22.5916 11.7695 22.7108 11.4785 22.7928 11.1348C22.8748 10.7871 22.9159 10.3887 22.9159 9.93945ZM30.8083 11.7676C30.8083 11.6152 30.7848 11.4785 30.738 11.3574C30.695 11.2324 30.613 11.1191 30.4919 11.0176C30.3708 10.9121 30.2009 10.8086 29.9821 10.707C29.7634 10.6055 29.4802 10.5 29.1325 10.3906C28.7458 10.2656 28.3786 10.125 28.0309 9.96875C27.6872 9.8125 27.3825 9.63086 27.1169 9.42383C26.8552 9.21289 26.6481 8.96875 26.4958 8.69141C26.3473 8.41406 26.2731 8.0918 26.2731 7.72461C26.2731 7.36914 26.3512 7.04688 26.5075 6.75781C26.6637 6.46484 26.8825 6.21484 27.1637 6.00781C27.445 5.79688 27.777 5.63477 28.1598 5.52148C28.5466 5.4082 28.9704 5.35156 29.4313 5.35156C30.0602 5.35156 30.6091 5.46484 31.0778 5.69141C31.5466 5.91797 31.9098 6.22852 32.1677 6.62305C32.4294 7.01758 32.5602 7.46875 32.5602 7.97656H30.8141C30.8141 7.72656 30.7614 7.50781 30.6559 7.32031C30.5544 7.12891 30.3981 6.97852 30.1872 6.86914C29.9802 6.75977 29.7184 6.70508 29.402 6.70508C29.0973 6.70508 28.8434 6.75195 28.6403 6.8457C28.4372 6.93555 28.2848 7.05859 28.1833 7.21484C28.0817 7.36719 28.0309 7.53906 28.0309 7.73047C28.0309 7.875 28.0661 8.00586 28.1364 8.12305C28.2106 8.24023 28.32 8.34961 28.4645 8.45117C28.6091 8.55273 28.7868 8.64844 28.9977 8.73828C29.2087 8.82812 29.4528 8.91602 29.7302 9.00195C30.195 9.14258 30.6032 9.30078 30.9548 9.47656C31.3102 9.65234 31.6071 9.84961 31.8454 10.0684C32.0837 10.2871 32.2634 10.5352 32.3845 10.8125C32.5055 11.0898 32.5661 11.4043 32.5661 11.7559C32.5661 12.127 32.4938 12.459 32.3493 12.752C32.2048 13.0449 31.9958 13.293 31.7223 13.4961C31.4489 13.6992 31.1227 13.8535 30.7438 13.959C30.3649 14.0645 29.9411 14.1172 29.4723 14.1172C29.0505 14.1172 28.6345 14.0625 28.2243 13.9531C27.8141 13.8398 27.4411 13.6699 27.1052 13.4434C26.7731 13.2168 26.5075 12.9277 26.3083 12.5762C26.1091 12.2246 26.0095 11.8086 26.0095 11.3281H27.7731C27.7731 11.5938 27.8141 11.8184 27.8962 12.002C27.9782 12.1855 28.0934 12.334 28.2419 12.4473C28.3942 12.5605 28.5739 12.6426 28.7809 12.6934C28.9919 12.7441 29.2223 12.7695 29.4723 12.7695C29.777 12.7695 30.027 12.7266 30.2223 12.6406C30.4216 12.5547 30.568 12.4355 30.6618 12.2832C30.7595 12.1309 30.8083 11.959 30.8083 11.7676ZM37.9859 5.46875V14H36.2339V5.46875H37.9859ZM40.6109 5.46875V6.8457H33.6499V5.46875H40.6109ZM48.427 10.959H46.2531V9.58789H48.427C48.7629 9.58789 49.0363 9.5332 49.2473 9.42383C49.4582 9.31055 49.6125 9.1543 49.7102 8.95508C49.8078 8.75586 49.8566 8.53125 49.8566 8.28125C49.8566 8.02734 49.8078 7.79102 49.7102 7.57227C49.6125 7.35352 49.4582 7.17773 49.2473 7.04492C49.0363 6.91211 48.7629 6.8457 48.427 6.8457H46.8625V14H45.1047V5.46875H48.427C49.0949 5.46875 49.6672 5.58984 50.1437 5.83203C50.6242 6.07031 50.9914 6.40039 51.2453 6.82227C51.4992 7.24414 51.6262 7.72656 51.6262 8.26953C51.6262 8.82031 51.4992 9.29688 51.2453 9.69922C50.9914 10.1016 50.6242 10.4121 50.1437 10.6309C49.6672 10.8496 49.0949 10.959 48.427 10.959ZM60.2569 9.53516V9.93945C60.2569 10.5879 60.169 11.1699 59.9932 11.6855C59.8174 12.2012 59.5694 12.6406 59.2491 13.0039C58.9287 13.3633 58.5459 13.6387 58.1006 13.8301C57.6592 14.0215 57.169 14.1172 56.6299 14.1172C56.0948 14.1172 55.6045 14.0215 55.1592 13.8301C54.7178 13.6387 54.335 13.3633 54.0108 13.0039C53.6866 12.6406 53.4346 12.2012 53.2549 11.6855C53.0791 11.1699 52.9912 10.5879 52.9912 9.93945V9.53516C52.9912 8.88281 53.0791 8.30078 53.2549 7.78906C53.4307 7.27344 53.6787 6.83398 53.9991 6.4707C54.3233 6.10742 54.7061 5.83008 55.1475 5.63867C55.5928 5.44727 56.083 5.35156 56.6182 5.35156C57.1573 5.35156 57.6475 5.44727 58.0889 5.63867C58.5342 5.83008 58.917 6.10742 59.2373 6.4707C59.5616 6.83398 59.8116 7.27344 59.9873 7.78906C60.167 8.30078 60.2569 8.88281 60.2569 9.53516ZM58.4815 9.93945V9.52344C58.4815 9.07031 58.4405 8.67188 58.3584 8.32812C58.2764 7.98438 58.1553 7.69531 57.9952 7.46094C57.835 7.22656 57.6397 7.05078 57.4092 6.93359C57.1787 6.8125 56.9151 6.75195 56.6182 6.75195C56.3213 6.75195 56.0577 6.8125 55.8272 6.93359C55.6006 7.05078 55.4073 7.22656 55.2471 7.46094C55.0909 7.69531 54.9717 7.98438 54.8897 8.32812C54.8077 8.67188 54.7666 9.07031 54.7666 9.52344V9.93945C54.7666 10.3887 54.8077 10.7871 54.8897 11.1348C54.9717 11.4785 55.0928 11.7695 55.253 12.0078C55.4131 12.2422 55.6084 12.4199 55.8389 12.541C56.0694 12.6621 56.333 12.7227 56.6299 12.7227C56.9268 12.7227 57.1905 12.6621 57.4209 12.541C57.6514 12.4199 57.8448 12.2422 58.001 12.0078C58.1573 11.7695 58.2764 11.4785 58.3584 11.1348C58.4405 10.7871 58.4815 10.3887 58.4815 9.93945ZM65.2548 10.959H63.0809V9.58789H65.2548C65.5907 9.58789 65.8641 9.5332 66.0751 9.42383C66.286 9.31055 66.4403 9.1543 66.538 8.95508C66.6356 8.75586 66.6845 8.53125 66.6845 8.28125C66.6845 8.02734 66.6356 7.79102 66.538 7.57227C66.4403 7.35352 66.286 7.17773 66.0751 7.04492C65.8641 6.91211 65.5907 6.8457 65.2548 6.8457H63.6903V14H61.9325V5.46875H65.2548C65.9227 5.46875 66.495 5.58984 66.9716 5.83203C67.452 6.07031 67.8192 6.40039 68.0731 6.82227C68.327 7.24414 68.454 7.72656 68.454 8.26953C68.454 8.82031 68.327 9.29688 68.0731 9.69922C67.8192 10.1016 67.452 10.4121 66.9716 10.6309C66.495 10.8496 65.9227 10.959 65.2548 10.959ZM74.7878 5.46875H76.5398V11.1055C76.5398 11.7617 76.3991 12.3145 76.1179 12.7637C75.8405 13.2129 75.4558 13.5508 74.9636 13.7773C74.4753 14.0039 73.9128 14.1172 73.2761 14.1172C72.6394 14.1172 72.073 14.0039 71.5769 13.7773C71.0847 13.5508 70.698 13.2129 70.4167 12.7637C70.1394 12.3145 70.0007 11.7617 70.0007 11.1055V5.46875H71.7585V11.1055C71.7585 11.4883 71.8191 11.8008 71.9402 12.043C72.0612 12.2852 72.2351 12.4629 72.4616 12.5762C72.6921 12.6895 72.9636 12.7461 73.2761 12.7461C73.5964 12.7461 73.8679 12.6895 74.0905 12.5762C74.3171 12.4629 74.489 12.2852 74.6062 12.043C74.7273 11.8008 74.7878 11.4883 74.7878 11.1055V5.46875ZM83.8814 12.6289V14H79.5865V12.6289H83.8814ZM80.1548 5.46875V14H78.397V5.46875H80.1548ZM88.8852 6.92773L86.5648 14H84.6957L87.8656 5.46875H89.0551L88.8852 6.92773ZM90.8129 14L88.4867 6.92773L88.2992 5.46875H89.5004L92.6879 14H90.8129ZM90.7074 10.8242V12.2012H86.2016V10.8242H90.7074ZM93.8889 5.46875H97.0705C97.7229 5.46875 98.2834 5.56641 98.7522 5.76172C99.2248 5.95703 99.5881 6.24609 99.842 6.62891C100.096 7.01172 100.223 7.48242 100.223 8.04102C100.223 8.49805 100.145 8.89062 99.9885 9.21875C99.8362 9.54297 99.6194 9.81445 99.3381 10.0332C99.0608 10.248 98.7346 10.4199 98.3596 10.5488L97.803 10.8418H95.0373L95.0256 9.4707H97.0823C97.3909 9.4707 97.6467 9.41602 97.8498 9.30664C98.053 9.19727 98.2053 9.04492 98.3069 8.84961C98.4123 8.6543 98.4651 8.42773 98.4651 8.16992C98.4651 7.89648 98.4143 7.66016 98.3127 7.46094C98.2112 7.26172 98.0569 7.10938 97.8498 7.00391C97.6428 6.89844 97.383 6.8457 97.0705 6.8457H95.6467V14H93.8889V5.46875ZM98.6584 14L96.7131 10.1973L98.5705 10.1855L100.539 13.918V14H98.6584Z" fill="black"/>
<defs>
<linearGradient id="paint0_linear_119_8419" x1="-6.46234e-07" y1="10" x2="131" y2="10" gradientUnits="userSpaceOnUse">
<stop stop-color="#FEC328"/>
<stop offset="1" stop-color="#FDD54F"/>
</linearGradient>
</defs>
</svg>
