<svg width="38" height="38" viewBox="0 0 38 38" fill="none" xmlns="http://www.w3.org/2000/svg">
<rect x="1.5" y="1" width="35.3398" height="35.3398" rx="17.6699" fill="url(#paint0_linear_12_3214)"/>
<path d="M19.1699 36.3398C28.9287 36.3398 36.8398 28.4288 36.8398 18.6699C36.8398 8.91109 28.9287 1 19.1699 1C9.41109 1 1.5 8.91109 1.5 18.6699C1.5 28.4288 9.41109 36.3398 19.1699 36.3398Z" stroke="white" stroke-width="1.79504" stroke-miterlimit="10"/>
<path d="M36.4943 18.0294C28.9279 10.9018 18.2083 9.15 9.09562 12.6456C8.76454 12.7739 8.4375 12.9062 8.1145 13.0465" stroke="url(#paint1_linear_12_3214)" stroke-width="1.76699" stroke-miterlimit="10" stroke-linecap="round"/>
<path d="M31.8309 22.463C21.6402 27.0651 9.54782 24.6444 1.5293 17.9337" stroke="url(#paint2_linear_12_3214)" stroke-width="1.76699" stroke-miterlimit="10" stroke-linecap="round"/>
<path d="M19.3762 36.3399C26.0546 27.9687 27.6654 16.1672 23.215 7.18789C23.0562 6.86388 22.8854 6.54094 22.7108 6.22235" stroke="url(#paint3_linear_12_3214)" stroke-width="1.76699" stroke-miterlimit="10" stroke-linecap="round"/>
<path d="M15.6862 29.9746C10.3328 20.6003 11.2331 9.40847 17.0695 1.14004" stroke="url(#paint4_linear_12_3214)" stroke-width="1.76699" stroke-miterlimit="10" stroke-linecap="round"/>
<ellipse cx="15.7053" cy="30.0146" rx="0.717716" ry="0.718016" fill="white"/>
<ellipse cx="22.6882" cy="6.21234" rx="0.717716" ry="0.718016" fill="white"/>
<ellipse cx="8.14814" cy="13.0336" rx="0.717716" ry="0.718016" fill="white"/>
<ellipse cx="31.8071" cy="22.4753" rx="0.717716" ry="0.718016" fill="white"/>
<defs>
<linearGradient id="paint0_linear_12_3214" x1="20.4668" y1="36.3398" x2="19.332" y2="3.26953" gradientUnits="userSpaceOnUse">
<stop stop-color="#50ACF0"/>
<stop offset="1" stop-color="#4F78F0"/>
</linearGradient>
<linearGradient id="paint1_linear_12_3214" x1="-18.6855" y1="6.2841" x2="37.2983" y2="17.9425" gradientUnits="userSpaceOnUse">
<stop stop-color="white" stop-opacity="0"/>
<stop offset="1" stop-color="white"/>
</linearGradient>
<linearGradient id="paint2_linear_12_3214" x1="2.3076" y1="20.4648" x2="60.8015" y2="23.3344" gradientUnits="userSpaceOnUse">
<stop stop-color="white"/>
<stop offset="1" stop-color="white" stop-opacity="0"/>
</linearGradient>
<linearGradient id="paint3_linear_12_3214" x1="25.4543" y1="-16.6925" x2="20.5367" y2="36.6134" gradientUnits="userSpaceOnUse">
<stop stop-color="white" stop-opacity="0"/>
<stop offset="1" stop-color="white"/>
</linearGradient>
<linearGradient id="paint4_linear_12_3214" x1="17.1378" y1="1.82468" x2="16.6044" y2="45.7744" gradientUnits="userSpaceOnUse">
<stop stop-color="white"/>
<stop offset="1" stop-color="white" stop-opacity="0"/>
</linearGradient>
</defs>
</svg>
