<svg width="40" height="40" viewBox="0 0 40 40" fill="none" xmlns="http://www.w3.org/2000/svg">
<circle cx="20" cy="20" r="20" fill="#E4E9F9" fill-opacity="0.4"/>
<g clip-path="url(#clip0_170_5048)">
<path d="M20 40C31.0457 40 40 31.0457 40 20C40 8.95431 31.0457 0 20 0C8.95431 0 0 8.95431 0 20C0 31.0457 8.95431 40 20 40Z" fill="url(#paint0_linear_170_5048)"/>
<path d="M13.5382 21.462L15.911 28.0297C15.911 28.0297 16.2077 28.6442 16.5253 28.6442C16.843 28.6442 21.5678 23.7288 21.5678 23.7288L26.822 13.5805L13.6228 19.7667L13.5382 21.462Z" fill="#C8DAEA"/>
<path d="M16.6843 23.1463L16.2288 27.9873C16.2288 27.9873 16.0382 29.4707 17.5212 27.9873C19.0042 26.504 20.4237 25.3602 20.4237 25.3602" fill="#A9C6D8"/>
<path d="M13.581 21.6963L8.70001 20.106C8.70001 20.106 8.11667 19.8693 8.30451 19.3327C8.34317 19.222 8.42117 19.1278 8.65451 18.966C9.73601 18.2122 28.6722 11.406 28.6722 11.406C28.6722 11.406 29.2068 11.2258 29.5222 11.3457C29.6002 11.3698 29.6704 11.4143 29.7256 11.4744C29.7808 11.5346 29.819 11.6084 29.8363 11.6882C29.8704 11.8291 29.8847 11.9741 29.8787 12.119C29.8772 12.2443 29.862 12.3605 29.8505 12.5427C29.7352 14.4035 26.2838 28.2915 26.2838 28.2915C26.2838 28.2915 26.0773 29.1042 25.3375 29.132C25.1557 29.1379 24.9746 29.1071 24.8049 29.0414C24.6352 28.9758 24.4805 28.8767 24.35 28.75C22.8982 27.5012 17.8802 24.1288 16.7713 23.3872C16.7463 23.3701 16.7253 23.3479 16.7096 23.322C16.6939 23.2962 16.6839 23.2672 16.6803 23.2372C16.6648 23.159 16.7498 23.0622 16.7498 23.0622C16.7498 23.0622 25.4875 15.2955 25.72 14.4802C25.738 14.417 25.67 14.3858 25.5787 14.4135C24.9983 14.627 14.938 20.9802 13.8277 21.6813C13.7478 21.7055 13.6633 21.7107 13.581 21.6963Z" fill="white"/>
</g>
<defs>
<linearGradient id="paint0_linear_170_5048" x1="20" y1="40" x2="20" y2="0" gradientUnits="userSpaceOnUse">
<stop stop-color="#1D93D2"/>
<stop offset="1" stop-color="#38B0E3"/>
</linearGradient>
<clipPath id="clip0_170_5048">
<rect width="40" height="40" fill="white"/>
</clipPath>
</defs>
</svg>
