<svg width="41" height="40" viewBox="0 0 41 40" fill="none" xmlns="http://www.w3.org/2000/svg">
<rect x="2.5" y="2" width="35.3398" height="35.3398" rx="17.6699" fill="url(#paint0_linear_12_3228)"/>
<path d="M20.1699 37.3398C29.9287 37.3398 37.8398 29.4288 37.8398 19.6699C37.8398 9.91109 29.9287 2 20.1699 2C10.4111 2 2.5 9.91109 2.5 19.6699C2.5 29.4288 10.4111 37.3398 20.1699 37.3398Z" stroke="white" stroke-width="1.79504" stroke-miterlimit="10"/>
<path d="M37.4943 19.0294C29.9279 11.9018 19.2083 10.15 10.0956 13.6456C9.76454 13.7739 9.4375 13.9062 9.1145 14.0465" stroke="url(#paint1_linear_12_3228)" stroke-width="1.76699" stroke-miterlimit="10" stroke-linecap="round"/>
<path d="M32.8309 23.463C22.6402 28.0651 10.5478 25.6444 2.5293 18.9337" stroke="url(#paint2_linear_12_3228)" stroke-width="1.76699" stroke-miterlimit="10" stroke-linecap="round"/>
<path d="M20.3762 37.3399C27.0546 28.9687 28.6654 17.1672 24.215 8.18789C24.0562 7.86388 23.8854 7.54094 23.7108 7.22235" stroke="url(#paint3_linear_12_3228)" stroke-width="1.76699" stroke-miterlimit="10" stroke-linecap="round"/>
<path d="M16.6862 30.9746C11.3328 21.6003 12.2331 10.4085 18.0695 2.14004" stroke="url(#paint4_linear_12_3228)" stroke-width="1.76699" stroke-miterlimit="10" stroke-linecap="round"/>
<ellipse cx="16.7053" cy="31.0146" rx="0.717716" ry="0.718016" fill="white"/>
<ellipse cx="23.6882" cy="7.21234" rx="0.717716" ry="0.718016" fill="white"/>
<ellipse cx="9.14814" cy="14.0336" rx="0.717716" ry="0.718016" fill="white"/>
<ellipse cx="32.8071" cy="23.4753" rx="0.717716" ry="0.718016" fill="white"/>
<defs>
<linearGradient id="paint0_linear_12_3228" x1="21.4668" y1="37.3398" x2="20.332" y2="4.26953" gradientUnits="userSpaceOnUse">
<stop stop-color="#50ACF0"/>
<stop offset="1" stop-color="#4F78F0"/>
</linearGradient>
<linearGradient id="paint1_linear_12_3228" x1="-17.6855" y1="7.2841" x2="38.2983" y2="18.9425" gradientUnits="userSpaceOnUse">
<stop stop-color="white" stop-opacity="0"/>
<stop offset="1" stop-color="white"/>
</linearGradient>
<linearGradient id="paint2_linear_12_3228" x1="3.3076" y1="21.4648" x2="61.8015" y2="24.3344" gradientUnits="userSpaceOnUse">
<stop stop-color="white"/>
<stop offset="1" stop-color="white" stop-opacity="0"/>
</linearGradient>
<linearGradient id="paint3_linear_12_3228" x1="26.4543" y1="-15.6925" x2="21.5367" y2="37.6134" gradientUnits="userSpaceOnUse">
<stop stop-color="white" stop-opacity="0"/>
<stop offset="1" stop-color="white"/>
</linearGradient>
<linearGradient id="paint4_linear_12_3228" x1="18.1378" y1="2.82468" x2="17.6044" y2="46.7744" gradientUnits="userSpaceOnUse">
<stop stop-color="white"/>
<stop offset="1" stop-color="white" stop-opacity="0"/>
</linearGradient>
</defs>
</svg>
